<?xml version="1.0" standalone="no"?>
<!DOCTYPE svg PUBLIC "-//W3C//DTD SVG 20010904//EN"
 "http://www.w3.org/TR/2001/REC-SVG-20010904/DTD/svg10.dtd">
<svg version="1.0" xmlns="http://www.w3.org/2000/svg"
 width="223.000000pt" height="215.000000pt" viewBox="0 0 223.000000 215.000000"
 preserveAspectRatio="xMidYMid meet">
<metadata>
Created by potrace 1.10, written by Peter Selinger 2001-2011
</metadata>
<g transform="translate(0.000000,215.000000) scale(0.100000,-0.100000)"
fill="#000000" stroke="none">
<path d="M980 2031 c-282 -60 -519 -246 -646 -506 -208 -428 -56 -947 351
-1197 337 -207 769 -178 1073 73 164 135 270 309 324 529 8 33 13 110 12 195
0 113 -4 156 -23 225 -81 304 -308 549 -601 652 -141 49 -338 61 -490 29z
m415 -39 c277 -77 501 -269 604 -521 54 -128 66 -194 66 -351 0 -110 -5 -162
-19 -214 -90 -334 -329 -573 -662 -662 -97 -26 -331 -26 -428 0 -170 45 -307
124 -426 245 -346 350 -346 912 0 1262 121 123 265 205 425 242 39 9 79 18 90
21 48 12 282 -3 350 -22z"/>
<path d="M614 1539 c-66 -19 -64 -7 -67 -423 l-2 -378 28 -24 29 -24 574 2
573 3 23 23 23 23 0 374 c0 372 0 375 -22 396 -14 14 -41 25 -75 30 -75 11
-1047 9 -1084 -2z m928 -158 l-210 -139 -48 24 c-76 39 -167 29 -244 -26 -12
-9 -61 20 -233 135 l-219 145 582 0 582 0 -210 -139z m-749 -22 c117 -78 213
-145 215 -150 2 -4 -4 -19 -13 -33 -9 -14 -19 -52 -22 -85 -11 -118 60 -197
187 -208 34 -3 78 -1 104 7 43 12 116 63 116 81 0 17 -32 9 -62 -16 -79 -67
-234 -52 -292 28 -25 34 -29 124 -7 175 14 35 26 39 53 18 16 -12 16 -15 -4
-54 -25 -53 -18 -102 19 -132 30 -24 61 -26 89 -6 16 13 21 12 36 -1 36 -32
112 6 147 74 16 32 14 115 -5 141 -9 13 -14 24 -13 25 2 1 97 64 211 140 114
75 209 137 212 137 3 0 6 -170 6 -378 0 -281 -3 -381 -12 -390 -17 -17 -1159
-17 -1176 0 -9 9 -12 109 -12 390 0 208 2 378 5 378 3 0 101 -64 218 -141z
m448 -109 c54 -15 65 -33 31 -51 -15 -8 -30 -18 -33 -22 -3 -4 -20 0 -37 10
-27 15 -35 16 -66 5 -57 -21 -103 13 -54 39 54 29 103 35 159 19z m89 -69 c28
-54 -5 -154 -55 -167 -14 -3 -28 -4 -31 -2 -9 9 34 171 48 179 20 13 26 11 38
-10z m-136 -20 c3 -5 -1 -14 -9 -21 -11 -9 -19 -9 -35 3 -16 11 -18 16 -8 20
21 9 46 8 52 -2z m-46 -36 c19 -14 24 -14 47 1 l25 16 0 -33 c0 -92 -100 -147
-125 -69 -7 21 12 100 23 100 4 0 17 -7 30 -15z"/>
<path d="M1130 552 c-14 -2 -28 -8 -31 -14 -3 -5 -68 -9 -148 -9 -127 0 -144
-2 -162 -20 -24 -24 -24 -59 0 -85 18 -20 30 -20 357 -19 455 2 412 -2 420 40
4 25 1 43 -10 60 -15 23 -23 25 -88 25 -51 0 -76 4 -89 16 -16 15 -20 14 -48
-2 -25 -15 -32 -15 -46 -4 -12 10 -19 10 -27 2 -16 -16 -43 -15 -76 1 -15 7
-38 11 -52 9z m37 -41 c-8 -40 2 -68 26 -75 28 -7 47 11 21 20 -31 11 -43 24
-37 40 6 17 59 19 69 3 5 -9 -1 -10 -20 -5 -34 8 -35 -11 -1 -24 48 -18 25
-50 -36 -48 l-44 0 -2 59 c-1 47 2 59 14 59 12 0 14 -7 10 -29z m203 -31 c0
-59 0 -60 -28 -60 -33 0 -52 16 -52 45 0 26 18 45 43 45 13 0 17 5 13 15 -3 9
0 15 9 15 12 0 15 -14 15 -60z m-502 3 c3 -20 -1 -23 -29 -23 -32 0 -32 -1
-16 -17 15 -16 19 -16 27 -3 5 8 12 11 15 8 12 -12 -5 -28 -29 -28 -41 0 -63
49 -34 78 21 21 63 10 66 -15z m140 -20 c2 -34 0 -43 -12 -43 -12 0 -15 9 -13
33 1 17 -2 33 -8 35 -5 1 -11 -13 -13 -33 -4 -48 -30 -47 -28 1 1 22 -4 39
-11 41 -9 3 -13 -8 -13 -36 0 -26 -5 -41 -12 -41 -9 0 -13 16 -13 45 l0 45 60
-2 60 -3 3 -42z m83 0 l5 -43 -38 0 c-33 0 -38 3 -38 24 0 17 7 26 25 30 14 4
25 11 25 16 0 14 -28 12 -33 -2 -2 -7 -8 -10 -12 -6 -14 13 7 29 33 26 23 -3
28 -9 33 -45z m39 2 c0 -25 -4 -45 -10 -45 -5 0 -10 20 -10 45 0 25 5 45 10
45 6 0 10 -20 10 -45z m150 0 c0 -25 -4 -45 -10 -45 -5 0 -10 20 -10 45 0 25
5 45 10 45 6 0 10 -20 10 -45z m178 18 c3 -20 -1 -23 -27 -23 -31 0 -41 -13
-21 -25 6 -4 18 -1 26 6 16 13 30 6 19 -10 -8 -15 -48 -14 -63 1 -16 16 -15
51 0 66 21 21 63 10 66 -15z m86 11 c12 -31 7 -74 -9 -74 -11 0 -15 11 -15 41
0 28 -4 39 -12 36 -7 -2 -13 -20 -13 -40 0 -23 -5 -37 -12 -37 -9 0 -13 16
-13 45 0 44 0 45 34 45 22 0 36 -6 40 -16z"/>
<path d="M1314 486 c-9 -23 0 -51 16 -51 10 0 15 10 15 29 0 32 -21 47 -31 22z"/>
</g>
</svg>
